<?xml version="1.0" standalone="no"?>
<!DOCTYPE svg PUBLIC "-//W3C//DTD SVG 20010904//EN"
 "http://www.w3.org/TR/2001/REC-SVG-20010904/DTD/svg10.dtd">
<svg version="1.0" xmlns="http://www.w3.org/2000/svg"
 width="854.000000pt" height="1213.000000pt" viewBox="0 0 854.000000 1213.000000"
 preserveAspectRatio="xMidYMid meet">

<g transform="translate(0.000000,1213.000000) scale(0.100000,-0.100000)"
fill="#000000" stroke="none">
<path d="M4157 11892 l-117 -117 -12 33 c-7 18 -15 31 -19 30 -4 -2 -84 -82
-178 -179 l-171 -177 46 -193 46 -194 48 -1105 c27 -608 46 -1108 42 -1111 -4
-4 -56 -21 -117 -39 -111 -33 -199 -80 -610 -322 -60 -36 -165 -98 -233 -138
l-123 -72 -83 -122 c-80 -116 -88 -123 -168 -170 -66 -40 -125 -91 -293 -256
-217 -213 -452 -418 -801 -696 -191 -153 -212 -166 -410 -269 -200 -103 -538
-290 -616 -341 -21 -13 -42 -24 -48 -24 -7 0 -10 277 -10 845 l0 845 -95 0
-95 0 0 -1880 0 -1880 645 0 645 0 0 100 0 100 -550 0 -550 0 2 683 3 682 65
6 c43 3 95 18 152 42 48 20 102 37 120 37 18 0 100 27 182 61 138 56 166 73
375 218 300 209 378 261 391 261 6 0 10 -65 10 -190 l0 -191 337 -412 c185
-227 338 -414 339 -416 2 -2 19 2 38 10 21 8 64 48 110 99 62 71 72 86 57 92
-20 7 -846 1013 -846 1030 0 6 84 64 186 129 137 87 264 156 486 263 263 127
329 164 533 298 l232 153 83 165 83 166 201 128 c171 109 341 196 380 196 5 0
30 -62 54 -137 l45 -138 16 -760 c9 -418 16 -932 16 -1143 l0 -383 80 -279 80
-279 0 -196 0 -195 -295 0 -295 0 -2 1050 -3 1050 -92 -104 -93 -105 0 -1045
0 -1046 390 0 390 0 0 -181 0 -181 81 -266 81 -265 48 -416 49 -416 -81 -1055
-80 -1055 58 -113 c33 -62 66 -119 74 -126 17 -14 561 -238 567 -233 1 2 -15
48 -37 102 -22 54 -38 100 -36 102 2 2 70 -24 152 -58 82 -33 170 -70 196 -80
l48 -19 -21 53 c-11 28 -38 95 -60 147 l-40 96 64 266 64 266 -32 494 c-32
477 -33 499 -19 668 7 96 14 250 14 343 0 154 -5 199 -60 570 -33 221 -83 542
-111 712 l-50 310 18 170 18 170 795 6 c752 5 802 6 921 27 390 66 579 134
782 280 82 59 257 217 257 233 0 4 -35 -17 -77 -48 -97 -69 -270 -154 -384
-187 -105 -30 -299 -70 -451 -92 -97 -15 -234 -18 -965 -21 l-853 -4 0 61 c0
33 -29 235 -64 448 -36 213 -92 594 -125 848 l-61 461 0 794 c1 539 5 869 14
1027 8 128 15 234 17 236 2 2 69 45 149 96 346 222 829 573 978 710 75 70 96
83 235 145 143 64 156 73 222 140 66 67 73 72 125 79 37 5 63 15 80 31 19 18
48 27 120 39 52 9 104 18 115 21 11 2 72 65 135 140 l114 136 271 191 c148
105 376 256 505 335 129 80 286 183 348 230 l112 85 0 164 0 163 -145 101
c-90 62 -150 98 -158 94 -6 -4 -56 -44 -110 -88 -84 -69 -101 -78 -117 -68
-15 9 -30 2 -98 -52 -57 -45 -110 -75 -183 -106 -72 -29 -113 -53 -134 -76
-19 -21 -64 -48 -125 -74 l-95 -41 -94 -117 c-84 -103 -113 -131 -256 -240
-90 -67 -232 -165 -317 -216 -209 -126 -375 -242 -543 -380 l-140 -116 -116 0
-117 0 -108 -66 c-112 -68 -271 -162 -475 -281 -106 -61 -120 -72 -149 -123
-47 -78 -59 -90 -95 -90 -32 0 -32 0 -38 63 -3 34 -25 400 -49 813 l-42 751
32 240 32 240 -69 144 -69 144 -95 72 -94 72 -53 128 c-29 70 -55 131 -59 135
-4 4 -59 -45 -124 -110z m142 -94 l42 -103 97 -73 97 -74 60 -125 59 -125 -31
-236 -32 -237 49 -844 c27 -464 52 -846 54 -848 2 -3 73 2 158 11 84 9 158 16
164 16 6 0 48 62 94 138 l82 137 76 44 c43 25 143 84 224 133 l147 88 127 0
128 0 111 72 c60 40 172 124 248 186 173 142 371 281 547 383 74 44 214 139
310 211 155 118 185 146 268 248 l94 115 178 77 c168 72 186 82 299 173 l122
98 62 -43 c34 -24 83 -59 110 -78 l47 -34 0 -134 0 -133 -90 -70 c-50 -38
-195 -134 -323 -212 -127 -78 -359 -232 -514 -341 -278 -196 -282 -200 -382
-318 -56 -65 -107 -125 -115 -132 -7 -7 -91 -26 -187 -42 l-174 -29 -83 -92
-82 -92 -159 -72 c-144 -66 -165 -79 -242 -150 -153 -140 -635 -490 -1031
-746 l-123 -80 -17 -285 c-12 -216 -17 -463 -17 -1026 l-1 -741 70 -529 c39
-291 97 -689 130 -884 l59 -355 -31 -315 -32 -315 57 -355 c32 -195 82 -520
112 -722 62 -416 65 -467 39 -810 l-16 -213 33 -490 32 -491 -63 -259 c-34
-143 -62 -269 -62 -280 0 -11 14 -53 31 -94 17 -41 30 -76 28 -78 -2 -1 -113
42 -248 98 l-244 100 -59 107 -58 107 79 1055 80 1055 -49 418 -48 419 -80
265 -80 266 0 476 0 476 -80 280 -80 280 0 350 c0 192 -7 706 -15 1140 l-16
790 -55 173 c-30 94 -57 172 -59 172 -3 0 -110 -41 -238 -91 -225 -88 -239
-96 -454 -232 l-222 -142 -78 -161 -78 -161 -220 -146 c-193 -128 -259 -165
-535 -300 -352 -172 -589 -316 -1074 -651 -237 -164 -267 -182 -401 -237 -141
-58 -147 -59 -239 -59 l-94 0 -26 63 c-24 56 -27 72 -24 172 l3 109 190 108
c105 60 323 176 485 259 l295 152 245 195 c389 311 661 547 850 737 143 143
193 187 271 236 94 57 99 62 169 168 39 60 79 116 88 124 16 15 164 102 459
272 134 78 154 86 389 158 135 42 248 78 250 80 3 2 -18 521 -45 1153 l-50
1149 -46 194 -46 194 153 154 c84 84 153 153 154 153 1 0 21 -46 43 -102z"/>
<path d="M5972 7373 l3 -98 180 -7 c145 -5 199 -11 277 -31 186 -49 333 -149
406 -277 40 -72 86 -211 109 -330 22 -121 26 -644 5 -780 -17 -114 -47 -220
-77 -280 -32 -63 -32 -66 8 -38 138 98 226 267 263 508 26 164 26 588 1 749
-49 309 -154 485 -349 580 -155 77 -305 101 -621 101 l-208 0 3 -97z"/>
</g>
</svg>
